<svg width="24" height="24" viewBox="0 0 24 24" fill="none" xmlns="http://www.w3.org/2000/svg">
<mask id="mask0_1_822" style="mask-type:alpha" maskUnits="userSpaceOnUse" x="0" y="0" width="24" height="24">
<rect width="24" height="24" fill="#D9D9D9"/>
</mask>
<g mask="url(#mask0_1_822)">
<path d="M5 23.7001C4.45 23.7001 3.979 23.504 3.587 23.112C3.19567 22.7207 3 22.25 3 21.7001V7.70005C3 7.15005 3.19567 6.67905 3.587 6.28705C3.979 5.89572 4.45 5.70005 5 5.70005H13.925L11.925 7.70005H5V21.7001H19V14.75L21 12.75V21.7001C21 22.25 20.8043 22.7207 20.413 23.112C20.021 23.504 19.55 23.7001 19 23.7001H5ZM16.175 6.27505L17.6 7.67505L11 14.275V15.7H12.4L19.025 9.07505L20.45 10.475L13.25 17.7H9V13.45L16.175 6.27505ZM20.45 10.475L16.175 6.27505L18.675 3.77505C19.075 3.37505 19.5543 3.17505 20.113 3.17505C20.671 3.17505 21.1417 3.37505 21.525 3.77505L22.925 5.20005C23.3083 5.58338 23.5 6.05005 23.5 6.60005C23.5 7.15005 23.3083 7.61672 22.925 8.00005L20.45 10.475Z" fill="#1C1B1F"/>
</g>
</svg>
