<svg width="24" height="24" viewBox="0 0 24 24" fill="none" xmlns="http://www.w3.org/2000/svg">
<mask id="mask0_1_836" style="mask-type:alpha" maskUnits="userSpaceOnUse" x="0" y="0" width="24" height="24">
<rect width="24" height="24" fill="#D9D9D9"/>
</mask>
<g mask="url(#mask0_1_836)">
<path d="M11 11H13.1L19.3 4.8L17.2 2.7L11 8.9V11ZM20 4.1L20.7 3.4C20.9 3.2 21 2.96667 21 2.7C21 2.43333 20.9 2.2 20.7 2L20 1.3C19.8 1.1 19.5667 1 19.3 1C19.0333 1 18.8 1.1 18.6 1.3L17.9 2L20 4.1ZM12 22C9.31667 19.7167 7.31267 17.5957 5.988 15.637C4.66267 13.679 4 11.8667 4 10.2C4 7.7 4.80433 5.70833 6.413 4.225C8.021 2.74167 9.88333 2 12 2C12.45 2 12.896 2.03733 13.338 2.112C13.7793 2.18733 14.2083 2.29167 14.625 2.425L13 4.075C12.8333 4.04167 12.6707 4.02067 12.512 4.012C12.354 4.004 12.1833 4 12 4C10.3167 4 8.89567 4.579 7.737 5.737C6.579 6.89567 6 8.38333 6 10.2C6 11.3833 6.49167 12.7373 7.475 14.262C8.45833 15.7873 9.96667 17.4833 12 19.35C14.0333 17.4833 15.5417 15.7873 16.525 14.262C17.5083 12.7373 18 11.3833 18 10.2C18 10 17.9917 9.804 17.975 9.612C17.9583 9.42067 17.9333 9.23333 17.9 9.05L19.55 7.4C19.7 7.83333 19.8127 8.28333 19.888 8.75C19.9627 9.21667 20 9.7 20 10.2C20 11.8667 19.3377 13.679 18.013 15.637C16.6877 17.5957 14.6833 19.7167 12 22Z" fill="#1C1B1F"/>
</g>
</svg>
