<svg width="25" height="24" viewBox="0 0 25 24" fill="none" xmlns="http://www.w3.org/2000/svg">
<mask id="mask0_2_2155" style="mask-type:alpha" maskUnits="userSpaceOnUse" x="0" y="0" width="25" height="24">
<rect x="0.25" width="24" height="24" fill="#C4C4C4"/>
</mask>
<g mask="url(#mask0_2_2155)">
<path d="M10.75 14H18.25V12H12.75L10.75 14ZM6.25 14H8.7L14.6 8.15C14.7 8.05 14.75 7.925 14.75 7.775C14.75 7.625 14.7 7.5 14.6 7.4L12.85 5.65C12.75 5.55 12.625 5.5 12.475 5.5C12.325 5.5 12.2 5.55 12.1 5.65L6.25 11.55V14ZM2.25 22V4C2.25 3.45 2.446 2.979 2.838 2.587C3.22933 2.19567 3.7 2 4.25 2H20.25C20.8 2 21.271 2.19567 21.663 2.587C22.0543 2.979 22.25 3.45 22.25 4V16C22.25 16.55 22.0543 17.021 21.663 17.413C21.271 17.8043 20.8 18 20.25 18H6.25L2.25 22ZM4.25 17.175L5.425 16H20.25V4H4.25V17.175Z" fill="#00C17C"/>
</g>
</svg>
