<svg width="25" height="24" viewBox="0 0 25 24" fill="none" xmlns="http://www.w3.org/2000/svg">
<mask id="mask0_2_2150" style="mask-type:alpha" maskUnits="userSpaceOnUse" x="0" y="0" width="25" height="24">
<rect x="0.75" width="24" height="24" fill="#C4C4C4"/>
</mask>
<g mask="url(#mask0_2_2150)">
<path d="M12.7 18C13.05 18 13.346 17.879 13.588 17.637C13.8293 17.3957 13.95 17.1 13.95 16.75C13.95 16.4 13.8293 16.1043 13.588 15.863C13.346 15.621 13.05 15.5 12.7 15.5C12.35 15.5 12.054 15.621 11.812 15.863C11.5707 16.1043 11.45 16.4 11.45 16.75C11.45 17.1 11.5707 17.3957 11.812 17.637C12.054 17.879 12.35 18 12.7 18ZM11.8 14.15H13.65C13.65 13.6 13.7127 13.1667 13.838 12.85C13.9627 12.5333 14.3167 12.1 14.9 11.55C15.3333 11.1167 15.675 10.704 15.925 10.312C16.175 9.92067 16.3 9.45 16.3 8.9C16.3 7.96667 15.9583 7.25 15.275 6.75C14.5917 6.25 13.7833 6 12.85 6C11.9 6 11.1293 6.25 10.538 6.75C9.946 7.25 9.53333 7.85 9.3 8.55L10.95 9.2C11.0333 8.9 11.221 8.575 11.513 8.225C11.8043 7.875 12.25 7.7 12.85 7.7C13.3833 7.7 13.7833 7.84567 14.05 8.137C14.3167 8.429 14.45 8.75 14.45 9.1C14.45 9.43333 14.35 9.74567 14.15 10.037C13.95 10.329 13.7 10.6 13.4 10.85C12.6667 11.5 12.2167 11.9917 12.05 12.325C11.8833 12.6583 11.8 13.2667 11.8 14.15ZM12.75 22C11.3833 22 10.0917 21.7373 8.875 21.212C7.65833 20.6873 6.596 19.975 5.688 19.075C4.77933 18.175 4.06267 17.1167 3.538 15.9C3.01267 14.6833 2.75 13.3833 2.75 12C2.75 10.6167 3.01267 9.31667 3.538 8.1C4.06267 6.88333 4.77933 5.825 5.688 4.925C6.596 4.025 7.65833 3.31233 8.875 2.787C10.0917 2.26233 11.3833 2 12.75 2C14.15 2 15.4583 2.26233 16.675 2.787C17.8917 3.31233 18.95 4.025 19.85 4.925C20.75 5.825 21.4583 6.88333 21.975 8.1C22.4917 9.31667 22.75 10.6167 22.75 12C22.75 13.3833 22.4917 14.6833 21.975 15.9C21.4583 17.1167 20.75 18.175 19.85 19.075C18.95 19.975 17.8917 20.6873 16.675 21.212C15.4583 21.7373 14.15 22 12.75 22ZM12.75 20C14.9833 20 16.875 19.221 18.425 17.663C19.975 16.1043 20.75 14.2167 20.75 12C20.75 9.78333 19.975 7.89567 18.425 6.337C16.875 4.779 14.9833 4 12.75 4C10.5667 4 8.68733 4.779 7.112 6.337C5.53733 7.89567 4.75 9.78333 4.75 12C4.75 14.2167 5.53733 16.1043 7.112 17.663C8.68733 19.221 10.5667 20 12.75 20Z" fill="#0084FE"/>
</g>
</svg>
