<svg width="29" height="28" viewBox="0 0 29 28" fill="none" xmlns="http://www.w3.org/2000/svg">
<mask id="mask0_1_276" style="mask-type:alpha" maskUnits="userSpaceOnUse" x="0" y="0" width="29" height="28">
<rect x="0.5" width="28" height="28" fill="#D9D9D9"/>
</mask>
<g mask="url(#mask0_1_276)">
<path d="M11 25.6667V10.2375C9.23055 9.77084 7.81616 8.79357 6.75682 7.30568C5.69671 5.81857 5.16666 4.16112 5.16666 2.33334H7.49999C7.49999 3.94723 8.02032 5.32273 9.06099 6.45984C10.1009 7.59773 11.4278 8.16668 13.0417 8.16668H15.9583C16.5417 8.16668 17.0861 8.27362 17.5917 8.48751C18.0972 8.7014 18.5542 9.01251 18.9625 9.42084L24.2417 14.7L22.6083 16.3333L18 11.725V25.6667H15.6667V18.6667H13.3333V25.6667H11ZM14.5 7.00001C13.8583 7.00001 13.3092 6.77134 12.8527 6.31401C12.3953 5.85746 12.1667 5.30834 12.1667 4.66668C12.1667 4.02501 12.3953 3.47551 12.8527 3.01818C13.3092 2.56162 13.8583 2.33334 14.5 2.33334C15.1417 2.33334 15.6912 2.56162 16.1485 3.01818C16.605 3.47551 16.8333 4.02501 16.8333 4.66668C16.8333 5.30834 16.605 5.85746 16.1485 6.31401C15.6912 6.77134 15.1417 7.00001 14.5 7.00001Z" fill="#979797"/>
</g>
</svg>
