<svg width="29" height="28" viewBox="0 0 29 28" fill="none" xmlns="http://www.w3.org/2000/svg">
<mask id="mask0_1_2009" style="mask-type:alpha" maskUnits="userSpaceOnUse" x="0" y="0" width="29" height="28">
<rect x="0.5" width="28" height="28" fill="#D9D9D9"/>
</mask>
<g mask="url(#mask0_1_2009)">
<path d="M11 25.6666V10.2374C9.23055 9.77075 7.81616 8.79347 6.75682 7.30559C5.69671 5.81847 5.16666 4.16103 5.16666 2.33325H7.49999C7.49999 3.94714 8.02032 5.32264 9.06099 6.45975C10.1009 7.59764 11.4278 8.16659 13.0417 8.16659H15.9583C16.5417 8.16659 17.0861 8.27353 17.5917 8.48742C18.0972 8.70131 18.5542 9.01242 18.9625 9.42075L24.2417 14.6999L22.6083 16.3333L18 11.7249V25.6666H15.6667V18.6666H13.3333V25.6666H11ZM14.5 6.99992C13.8583 6.99992 13.3092 6.77125 12.8527 6.31392C12.3953 5.85736 12.1667 5.30825 12.1667 4.66659C12.1667 4.02492 12.3953 3.47542 12.8527 3.01809C13.3092 2.56153 13.8583 2.33325 14.5 2.33325C15.1417 2.33325 15.6912 2.56153 16.1485 3.01809C16.605 3.47542 16.8333 4.02492 16.8333 4.66659C16.8333 5.30825 16.605 5.85736 16.1485 6.31392C15.6912 6.77125 15.1417 6.99992 14.5 6.99992Z" fill="#5278FF"/>
</g>
</svg>
