<svg width="29" height="28" viewBox="0 0 29 28" fill="none" xmlns="http://www.w3.org/2000/svg">
<mask id="mask0_1_273" style="mask-type:alpha" maskUnits="userSpaceOnUse" x="0" y="0" width="29" height="28">
<rect x="0.5" width="28" height="28" fill="#D9D9D9"/>
</mask>
<g mask="url(#mask0_1_273)">
<path d="M18 24.5L11 22.05L5.575 24.15C5.18611 24.3056 4.82639 24.2616 4.49583 24.0182C4.16528 23.7755 4 23.45 4 23.0417V6.70833C4 6.45556 4.07311 6.23194 4.21933 6.0375C4.36478 5.84306 4.56389 5.69722 4.81667 5.6L11 3.5L18 5.95L23.425 3.85C23.8139 3.69444 24.1736 3.738 24.5042 3.98067C24.8347 4.22411 25 4.55 25 4.95833V21.2917C25 21.5444 24.9269 21.7681 24.7807 21.9625C24.6352 22.1569 24.4361 22.3028 24.1833 22.4L18 24.5ZM16.8333 21.6417V7.99167L12.1667 6.35833V20.0083L16.8333 21.6417ZM19.1667 21.6417L22.6667 20.475V6.65L19.1667 7.99167V21.6417ZM6.33333 21.35L9.83333 20.0083V6.35833L6.33333 7.525V21.35Z" fill="#979797"/>
</g>
</svg>
