<svg width="29" height="28" viewBox="0 0 29 28" fill="none" xmlns="http://www.w3.org/2000/svg">
<mask id="mask0_1_241" style="mask-type:alpha" maskUnits="userSpaceOnUse" x="0" y="0" width="29" height="28">
<rect x="0.5" width="28" height="28" fill="#D9D9D9"/>
</mask>
<g mask="url(#mask0_1_241)">
<path d="M14.5 19.8333L16.3083 15.8083L20.3333 14L16.3083 12.1917L14.5 8.16667L12.6917 12.1917L8.66667 14L12.6917 15.8083L14.5 19.8333ZM6.33333 24.5C5.69167 24.5 5.14217 24.2717 4.68483 23.8152C4.22828 23.3578 4 22.8083 4 22.1667V5.83333C4 5.19167 4.22828 4.64217 4.68483 4.18483C5.14217 3.72828 5.69167 3.5 6.33333 3.5H22.6667C23.3083 3.5 23.8578 3.72828 24.3152 4.18483C24.7717 4.64217 25 5.19167 25 5.83333V22.1667C25 22.8083 24.7717 23.3578 24.3152 23.8152C23.8578 24.2717 23.3083 24.5 22.6667 24.5H6.33333ZM6.33333 22.1667H22.6667V5.83333H6.33333V22.1667Z" fill="#5278FF"/>
</g>
</svg>
