<svg width="29" height="28" viewBox="0 0 29 28" fill="none" xmlns="http://www.w3.org/2000/svg">
<mask id="mask0_1_232" style="mask-type:alpha" maskUnits="userSpaceOnUse" x="0" y="0" width="29" height="28">
<rect x="0.5" width="28" height="28" fill="#D9D9D9"/>
</mask>
<g mask="url(#mask0_1_232)">
<path d="M6.33333 25.6667C5.69167 25.6667 5.14217 25.4384 4.68483 24.9818C4.22828 24.5245 4 23.975 4 23.3333V7.00001C4 6.35834 4.22828 5.80923 4.68483 5.35268C5.14217 4.89534 5.69167 4.66668 6.33333 4.66668H7.5V2.33334H9.83333V4.66668H19.1667V2.33334H21.5V4.66668H22.6667C23.3083 4.66668 23.8578 4.89534 24.3152 5.35268C24.7717 5.80923 25 6.35834 25 7.00001V14H22.6667V11.6667H6.33333V23.3333H14.5V25.6667H6.33333ZM26.3125 19.8333L23.8333 17.3542L24.6792 16.5083C24.8931 16.2945 25.1653 16.1875 25.4958 16.1875C25.8264 16.1875 26.0986 16.2945 26.3125 16.5083L27.1583 17.3542C27.3722 17.5681 27.4792 17.8403 27.4792 18.1708C27.4792 18.5014 27.3722 18.7736 27.1583 18.9875L26.3125 19.8333ZM16.8333 26.8333V24.3542L23.0167 18.1708L25.4958 20.65L19.3125 26.8333H16.8333ZM6.33333 9.33334H22.6667V7.00001H6.33333V9.33334Z" fill="#979797"/>
</g>
</svg>
