<svg width="29" height="28" viewBox="0 0 29 28" fill="none" xmlns="http://www.w3.org/2000/svg">
<mask id="mask0_1_504" style="mask-type:alpha" maskUnits="userSpaceOnUse" x="0" y="0" width="29" height="28">
<rect x="0.5" width="28" height="28" fill="#D9D9D9"/>
</mask>
<g mask="url(#mask0_1_504)">
<path d="M6.33333 25.6667C5.69167 25.6667 5.14217 25.4384 4.68483 24.9819C4.22828 24.5245 4 23.975 4 23.3334V7.00004C4 6.35837 4.22828 5.80926 4.68483 5.35271C5.14217 4.89537 5.69167 4.66671 6.33333 4.66671H7.5V2.33337H9.83333V4.66671H19.1667V2.33337H21.5V4.66671H22.6667C23.3083 4.66671 23.8578 4.89537 24.3152 5.35271C24.7717 5.80926 25 6.35837 25 7.00004V14H22.6667V11.6667H6.33333V23.3334H14.5V25.6667H6.33333ZM26.3125 19.8334L23.8333 17.3542L24.6792 16.5084C24.8931 16.2945 25.1653 16.1875 25.4958 16.1875C25.8264 16.1875 26.0986 16.2945 26.3125 16.5084L27.1583 17.3542C27.3722 17.5681 27.4792 17.8403 27.4792 18.1709C27.4792 18.5014 27.3722 18.7737 27.1583 18.9875L26.3125 19.8334ZM16.8333 26.8334V24.3542L23.0167 18.1709L25.4958 20.65L19.3125 26.8334H16.8333ZM6.33333 9.33337H22.6667V7.00004H6.33333V9.33337Z" fill="#5278FF"/>
</g>
</svg>
